<svg width="81" height="81" viewBox="0 0 81 81" fill="none" xmlns="http://www.w3.org/2000/svg">
<path d="M9.52942 33.3525H14.2941V38.1172H9.52942V33.3525Z" fill="#E21042"/>
<path d="M19.0588 33.3525H23.8235V38.1172H19.0588V33.3525Z" fill="#E21042"/>
<path d="M28.5882 33.3525H33.3529V38.1172H28.5882V33.3525Z" fill="#E21042"/>
<path d="M72.8206 50.0294H66.7059V0H14.2941V21.4412H12.4676C5.59297 21.4412 0 27.0341 0 33.9088V37.5618C0 44.4364 5.59297 50.0294 12.4676 50.0294H14.2941V81H66.7059V69.0882H72.8206C77.3307 69.0882 81 65.4189 81 60.9088V58.2088C81 53.6987 77.3307 50.0294 72.8206 50.0294ZM4.76471 37.5618V33.9088C4.76471 29.6614 8.22023 26.2059 12.4676 26.2059H30.4147C34.6621 26.2059 38.1176 29.6614 38.1176 33.9088V45.2647H12.4676C8.22023 45.2647 4.76471 41.8092 4.76471 37.5618ZM61.9412 76.2353H19.0588V50.0294H42.8824V33.9088C42.8824 27.0341 37.2894 21.4412 30.4147 21.4412H19.0588V4.76471H61.9412V50.0294H57.1234C51.8981 50.0294 47.6471 54.2805 47.6471 59.5059V69.0882H61.9412V76.2353ZM76.2353 60.9088C76.2353 62.7917 74.7034 64.3235 72.8206 64.3235H52.4118V59.5059C52.4118 56.9079 54.5255 54.7941 57.1234 54.7941H72.8206C74.7034 54.7941 76.2353 56.326 76.2353 58.2088V60.9088Z" fill="#E21042"/>
<path d="M33.3529 9.5293H47.647V14.294H33.3529V9.5293Z" fill="#E21042"/>
</svg>
