<svg width="201" height="36" viewBox="0 0 201 36" fill="none" xmlns="http://www.w3.org/2000/svg">
<path d="M55.21 17.96L51.79 10.97H47.8L55.21 26.21L62.62 10.97H58.6L55.21 17.96ZM79.1041 18.53C79.1041 14.27 75.6541 10.82 71.3941 10.82C67.1641 10.82 63.7141 14.27 63.7141 18.53C63.7141 19.16 63.7741 19.76 63.9241 20.36C64.7341 23.72 67.7941 26.21 71.3941 26.21C73.2841 26.21 74.9941 25.55 76.3441 24.44L73.8541 21.8C73.1641 22.34 72.2941 22.61 71.3941 22.61C70.3141 22.61 69.2941 22.19 68.5141 21.41C68.1841 21.11 67.9441 20.75 67.7341 20.36H78.8941C79.0141 19.76 79.1041 19.16 79.1041 18.53ZM67.7041 16.76C67.9141 16.34 68.1541 15.98 68.5141 15.62C69.2941 14.84 70.3141 14.42 71.3941 14.42C72.5041 14.42 73.5241 14.84 74.3041 15.62C74.6641 15.98 74.9041 16.34 75.1141 16.76H67.7041ZM90.4136 10.88C88.8536 10.88 87.4736 11.54 86.3336 12.56V10.97H82.7336V26H83.3936H86.3336V17.63C86.3336 16.82 86.6636 16.04 87.2636 15.44C87.8636 14.84 88.6436 14.54 89.4536 14.54C90.2636 14.54 91.0436 14.84 91.6436 15.44C92.2436 16.04 92.5436 16.82 92.5436 17.63V26H96.1136V16.58C96.1136 13.82 93.7436 10.88 90.4136 10.88ZM109.007 22.34C108.707 22.46 108.377 22.55 108.047 22.55C107.447 22.55 106.877 22.31 106.457 21.89C106.037 21.44 105.797 20.9 105.797 20.3V18.65V14.6H108.497V11H105.797V7.4H102.197V11H99.4973V14.6H102.197V20.3C102.197 23.51 104.837 26.15 108.047 26.15C108.797 26.15 109.547 26 110.207 25.73L109.007 22.34ZM118.644 26.15C120.084 26.15 121.434 25.79 122.454 25.13C123.804 24.26 124.524 22.88 124.524 21.29C124.524 19.97 123.924 18.77 122.844 17.9C121.854 17.12 120.534 16.64 118.914 16.49C117.564 16.37 117.174 16.07 117.084 15.98C117.024 15.92 116.964 15.86 116.964 15.5C116.964 15.44 117.024 15.23 117.324 14.99C117.804 14.57 118.464 14.51 118.974 14.51C120.624 14.51 121.674 15.44 121.734 15.5C121.704 15.47 121.704 15.47 121.704 15.47L124.224 12.89C124.014 12.68 122.094 10.91 118.974 10.91C116.994 10.91 115.734 11.63 115.014 12.23C114.024 13.04 113.424 14.18 113.364 15.32C113.364 15.41 113.364 15.5 113.364 15.59C113.364 16.76 113.754 17.75 114.504 18.5C115.404 19.4 116.724 19.91 118.584 20.09C119.964 20.21 120.924 20.72 120.924 21.29C120.924 21.68 120.804 21.89 120.474 22.1C120.054 22.4 119.394 22.55 118.644 22.55C117.384 22.55 116.484 22.22 115.524 21.41L113.214 24.17C114.804 25.52 116.544 26.15 118.644 26.15ZM145.885 10.88C143.875 10.88 142.135 11.99 140.875 13.55C139.885 12.02 138.205 10.88 136.105 10.88C134.545 10.88 133.165 11.54 132.025 12.56V10.97H128.425V26H129.085H132.025V17.63C132.025 16.82 132.355 16.04 132.955 15.44C133.555 14.84 134.335 14.54 135.145 14.54C135.955 14.54 136.735 14.84 137.335 15.44C137.935 16.04 138.235 16.82 138.235 17.63V26H141.805V17.63C141.805 16.82 142.135 16.04 142.735 15.44C143.335 14.84 144.115 14.54 144.925 14.54C145.735 14.54 146.515 14.84 147.115 15.44C147.715 16.04 148.015 16.82 148.015 17.63V26H151.585V16.58C151.585 13.82 149.215 10.88 145.885 10.88ZM166.964 12.71C165.944 11.6 164.534 10.85 162.614 10.85C158.474 10.85 155.384 14.27 155.384 18.5C155.384 22.7 158.474 26.15 162.614 26.15C164.564 26.15 165.974 25.34 166.964 24.23V26H170.564V11H166.964V12.71ZM165.734 21.56C164.954 22.34 163.964 22.76 162.884 22.76C161.834 22.76 160.814 22.31 160.064 21.56C159.254 20.75 158.834 19.64 158.834 18.5C158.834 17.33 159.254 16.25 160.064 15.44C160.814 14.66 161.834 14.21 162.884 14.21C163.964 14.21 164.954 14.66 165.734 15.44C166.514 16.25 166.964 17.33 166.964 18.5C166.964 19.64 166.544 20.75 165.734 21.56ZM185.075 11.54C184.295 11.12 183.395 10.88 182.435 10.88C180.875 10.88 179.495 11.54 178.355 12.56V10.97H174.755V26H175.415H178.355V17.63C178.355 16.82 178.685 16.04 179.285 15.44C179.885 14.84 180.665 14.54 181.475 14.54C182.135 14.54 182.765 14.75 183.305 15.11L185.075 11.54ZM197.337 22.34C197.037 22.46 196.707 22.55 196.377 22.55C195.777 22.55 195.207 22.31 194.787 21.89C194.367 21.44 194.127 20.9 194.127 20.3V18.65V14.6H196.827V11H194.127V7.4H190.527V11H187.827V14.6H190.527V20.3C190.527 23.51 193.167 26.15 196.377 26.15C197.127 26.15 197.877 26 198.537 25.73L197.337 22.34Z" fill="white"/>
<path d="M0.436201 19.0675C2.3292 20.8942 4.4747 22.9647 8.62476 22.9647C12.775 22.9646 14.9206 20.8942 16.8136 19.0675C18.6039 17.3401 20.15 15.8481 23.3749 15.8481C26.5998 15.8481 28.1459 17.3401 29.9361 19.0675C30.4602 19.5732 31.2493 19.5052 31.6988 18.9157C32.1482 18.3262 32.0878 17.4384 31.5638 16.9328C29.6707 15.1061 27.5251 13.0356 23.3749 13.0356C19.2247 13.0356 17.0791 15.1061 15.186 16.9328C13.3958 18.6602 11.8496 20.1522 8.62476 20.1522C5.39995 20.1522 3.85401 18.6603 2.06389 16.9328C1.53989 16.4272 0.750764 16.495 0.301264 17.0846C-0.148236 17.6741 -0.0877986 18.5619 0.436201 19.0675Z" fill="white"/>
<path d="M0.436203 11.4394C2.32915 13.1823 4.47465 15.1578 8.62479 15.1578C12.775 15.1578 14.9206 13.1823 16.8137 11.4394C18.6039 9.79114 20.15 8.3676 23.375 8.3676C26.5998 8.3676 28.1459 9.79107 29.9362 11.4394C30.4603 11.9219 31.2493 11.8569 31.6988 11.2944C32.1483 10.7319 32.0877 9.88472 31.5637 9.40236C29.6707 7.65942 27.525 5.68408 23.375 5.68408C19.2248 5.68408 17.0791 7.65955 15.1861 9.4025C13.3958 11.0507 11.8497 12.4742 8.62479 12.4742C5.40003 12.4742 3.85402 11.0508 2.06389 9.4025C1.53989 8.92 0.750703 8.98481 0.301265 9.54734C-0.148236 10.1098 -0.0877988 10.9569 0.436203 11.4394Z" fill="white"/>
<path d="M31.5637 24.6242C29.6706 22.7975 27.525 20.7271 23.3748 20.7271C19.2246 20.7271 17.079 22.7975 15.186 24.6242C13.3957 26.3516 11.8496 27.8436 8.62471 27.8436C5.40009 27.8436 3.85402 26.3517 2.0639 24.6243L2.06377 24.6242C1.53977 24.1187 0.750712 24.1866 0.301212 24.7761C-0.148226 25.3656 -0.0877882 26.2534 0.436212 26.759C2.32921 28.5857 4.47477 30.6561 8.62471 30.6561C12.7749 30.6561 14.9205 28.5857 16.8136 26.7589C18.6038 25.0315 20.15 23.5395 23.3748 23.5395C26.5998 23.5395 28.1459 25.0315 29.9361 26.7589C30.4601 27.2646 31.2493 27.1966 31.6987 26.6071C32.1481 26.0176 32.0878 25.1298 31.5637 24.6242Z" fill="white"/>
</svg>
