<svg width="32" height="26" viewBox="0 0 32 26" fill="none" xmlns="http://www.w3.org/2000/svg">
<path d="M0.436201 14.0674C2.3292 15.8941 4.4747 17.9645 8.62476 17.9645C12.775 17.9645 14.9206 15.8941 16.8136 14.0674C18.6039 12.34 20.15 10.848 23.3749 10.848C26.5998 10.848 28.1459 12.34 29.9361 14.0674C30.4602 14.573 31.2493 14.5051 31.6988 13.9156C32.1482 13.326 32.0878 12.4383 31.5638 11.9327C29.6707 10.106 27.5251 8.03553 23.3749 8.03553C19.2247 8.03553 17.0791 10.1059 15.186 11.9327C13.3958 13.6601 11.8496 15.1521 8.62476 15.1521C5.39995 15.1521 3.85401 13.6602 2.06389 11.9327C1.53989 11.427 0.750764 11.4949 0.301264 12.0845C-0.148236 12.674 -0.0877986 13.5618 0.436201 14.0674Z" fill="white"/>
<path d="M0.436233 6.43948C2.32918 8.18242 4.47468 10.1579 8.62482 10.1579C12.775 10.1579 14.9206 8.18242 16.8137 6.43948C18.604 4.79126 20.15 3.36772 23.375 3.36772C26.5998 3.36772 28.1459 4.7912 29.9363 6.43948C30.4603 6.92204 31.2494 6.85703 31.6988 6.2945C32.1483 5.73204 32.0878 4.88485 31.5638 4.40249C29.6707 2.65954 27.5251 0.684208 23.375 0.684208C19.2248 0.684208 17.0792 2.65968 15.1861 4.40262C13.3958 6.05084 11.8497 7.47438 8.62482 7.47438C5.40006 7.47438 3.85405 6.0509 2.06393 4.40262C1.53992 3.92013 0.750734 3.98493 0.301295 4.54747C-0.148206 5.10993 -0.0877683 5.95705 0.436233 6.43948Z" fill="white"/>
<path d="M31.5638 19.6243C29.6707 17.7977 27.5251 15.7272 23.3749 15.7272C19.2247 15.7272 17.0791 17.7976 15.186 19.6243C13.3958 21.3518 11.8496 22.8437 8.62477 22.8437C5.40015 22.8437 3.85409 21.3519 2.06396 19.6245L2.06384 19.6243C1.53984 19.1189 0.750773 19.1868 0.301273 19.7762C-0.148165 20.3657 -0.0877272 21.2536 0.436273 21.7592C2.32927 23.5859 4.47484 25.6562 8.62477 25.6562C12.775 25.6562 14.9206 23.5858 16.8136 21.7591C18.6039 20.0317 20.15 18.5397 23.3749 18.5397C26.5998 18.5397 28.146 20.0317 29.9361 21.7591C30.4602 22.2647 31.2493 22.1968 31.6988 21.6073C32.1482 21.0177 32.0878 20.13 31.5638 19.6243Z" fill="white"/>
</svg>
