<svg width="81" height="81" viewBox="0 0 81 81" fill="none" xmlns="http://www.w3.org/2000/svg">
<path d="M58.5243 44.3748L53.1261 49.773L47.7223 44.3691L60.6877 31.4037C62.113 31.805 63.5681 32.0012 65.0149 32.0011C69.1781 32.0008 73.2656 30.3742 76.3193 27.3205C80.811 22.8287 82.2153 16.102 79.8969 10.1835L78.5747 6.80785L70.0887 15.294L66.6624 14.3758L65.7442 10.9492L74.23 2.46327L70.8548 1.1412C64.9368 -1.17688 58.2099 0.22725 53.7178 4.71905C49.603 8.83388 48.0791 14.824 49.6348 20.3504L36.6693 33.3159L19.2586 15.9051L23.8778 11.286L9.56058 0.000976562L0 9.5614L11.2849 23.8788L15.9043 19.2595L33.3151 36.6703L21.8695 48.1159C15.9253 46.2538 9.44025 47.8094 4.96616 52.2835C1.789 55.4607 0.0392145 59.6849 0.0392145 64.178C0.0392145 68.671 1.789 72.8953 4.96616 76.0724C8.24547 79.3517 12.5529 80.9913 16.8606 80.9913C21.1682 80.9913 25.4758 79.3517 28.7551 76.0724C33.2292 71.5984 34.7848 65.1131 32.9228 59.1691L44.3683 47.7235L49.7722 53.1274L44.374 58.5256L63.9169 78.0684C65.8068 79.9583 68.3195 80.9991 70.9922 80.9991C73.6648 80.9991 76.1776 79.9583 78.0675 78.0684C81.9687 74.1671 81.9687 67.8194 78.0675 63.918L58.5243 44.3748ZM6.33488 9.93536L9.93454 6.33569L16.7485 11.7067L11.7058 16.7493L6.33488 9.93536ZM55.123 21.5707L54.557 20.1256C52.9262 15.9628 53.9134 11.232 57.0721 8.07315C59.2635 5.88188 62.2106 4.73628 65.2015 4.7834L60.4534 9.53167L62.7892 18.2488L71.5065 20.5848L76.2544 15.8367C76.3023 18.8268 75.1561 21.7748 72.9648 23.9661C69.806 27.1246 65.0753 28.1121 60.9124 26.481L59.4675 25.9151L44.368 41.0146L40.0234 36.67L55.123 21.5707ZM27.3712 58.0117L27.9907 59.4819C29.9081 64.0317 28.8914 69.2273 25.4007 72.718C23.0458 75.0728 19.9537 76.25 16.8605 76.2497C13.7681 76.2495 10.6746 75.0723 8.32027 72.718C6.03919 70.4368 4.78274 67.404 4.78274 64.1778C4.78274 60.9516 6.03903 57.9188 8.32027 55.6376C10.6399 53.3181 13.7113 52.0911 16.8467 52.0911C18.4298 52.0911 20.0297 52.4041 21.5563 53.0475L23.0265 53.6671L36.6692 40.0244L41.0137 44.369L27.3712 58.0117ZM58.5243 51.0832L62.869 55.4279L55.4271 62.8698L51.0825 58.5252L58.5243 51.0832ZM74.7132 74.7142C73.7192 75.708 72.3978 76.2554 70.9922 76.2554C69.5867 76.2554 68.2651 75.708 67.2713 74.7142L58.7814 66.2242L66.2233 58.7823L74.7132 67.2723C76.7648 69.3239 76.7648 72.6624 74.7132 74.7142Z" fill="#E21042"/>
<path d="M16.8604 56.3621C14.7727 56.3621 12.81 57.1751 11.3339 58.6514C9.85765 60.1276 9.04459 62.0902 9.04459 64.1779C9.04459 66.2656 9.85765 68.2282 11.3337 69.7045C12.81 71.1807 14.7727 71.9938 16.8604 71.9938C18.9481 71.9938 20.9108 71.1807 22.3871 69.7045C25.4343 66.6571 25.4343 61.6985 22.3871 58.6514C20.9109 57.1751 18.9481 56.3621 16.8604 56.3621ZM19.0329 66.3502C18.4526 66.9304 17.6811 67.2499 16.8606 67.2499C16.0399 67.2499 15.2686 66.9304 14.6883 66.3502C14.1082 65.7699 13.7886 64.9984 13.7886 64.1779C13.7886 63.3574 14.1082 62.5859 14.6885 62.0056C15.2686 61.4253 16.0401 61.1059 16.8608 61.1059C17.6813 61.1059 18.4527 61.4255 19.033 62.0056C20.2305 63.2034 20.2305 65.1524 19.0329 66.3502Z" fill="#E21042"/>
</svg>
