<svg width="81" height="81" viewBox="0 0 81 81" fill="none" xmlns="http://www.w3.org/2000/svg">
<path d="M0 0V81H81V0H0ZM76.2539 76.2539H4.74609V4.74609H76.2539V76.2539Z" fill="#E21042"/>
<path d="M40.5 71.5078C57.5105 71.5078 71.3496 57.5978 71.3496 40.5C71.3496 23.4022 57.5105 9.49219 40.5 9.49219C23.4459 9.49219 9.49219 23.4479 9.49219 40.5C9.49219 57.5541 23.4479 71.5078 40.5 71.5078ZM52.0732 43.1067C52.2622 42.2673 52.3652 41.3956 52.3652 40.5C52.3652 39.9033 52.3198 39.317 52.2344 38.7436C58.762 38.1744 64.3032 40.6414 66.5695 41.8479C66.305 47.0873 64.5056 51.9253 61.6177 55.9177C60.1654 52.2985 57.3194 47.0784 52.0732 43.1067ZM50.0352 47.5521C55.1116 51.812 57.2789 57.5562 58.0047 59.9647C54.314 63.3273 49.6661 65.6448 44.5271 66.449C46.0589 62.8234 47.7433 57.0582 46.8394 50.522C48.0784 49.7356 49.1634 48.728 50.0352 47.5521ZM37.8933 52.0732C38.7329 52.2622 39.6044 52.3652 40.5 52.3652C41.0967 52.3652 41.6829 52.3198 42.2562 52.2344C42.8283 58.7952 40.3496 64.4268 39.1421 66.7269C33.8569 66.4564 28.9804 64.6147 24.9689 61.663C28.5917 60.2249 33.8798 57.3746 37.8933 52.0732ZM40.5 47.6191C36.5745 47.6191 33.3809 44.4255 33.3809 40.5C33.3809 36.5745 36.5745 33.3809 40.5 33.3809C44.4255 33.3809 47.6191 36.5745 47.6191 40.5C47.6191 44.4255 44.4255 47.6191 40.5 47.6191ZM43.1067 28.9268C42.2673 28.7378 41.3956 28.6348 40.5 28.6348C39.9033 28.6348 39.3171 28.6802 38.7438 28.7656C38.1719 22.2074 40.6486 16.5776 41.8579 14.2736C47.1224 14.5463 51.9787 16.3965 55.9702 19.3611C52.3493 20.8069 47.0977 23.6552 43.1067 28.9268ZM34.1605 30.478C32.9216 31.2644 31.8366 32.2722 30.9648 33.4479C25.8369 29.1448 23.6776 23.3275 22.9733 20.9606C26.6792 17.633 31.3328 15.341 36.4747 14.5466C34.9422 18.1718 33.2562 23.9391 34.1605 30.478ZM28.9268 37.8933C28.7378 38.7327 28.6348 39.6044 28.6348 40.5C28.6348 41.0967 28.6802 41.6829 28.7656 42.2562C22.2068 42.8281 16.5768 40.351 14.2731 39.1418C14.5436 33.8567 16.3853 28.9803 19.337 24.9689C20.7751 28.5917 23.6253 33.8798 28.9268 37.8933ZM26.7594 47.0944C27.9624 47.0944 29.2056 47.0142 30.4772 46.8384C31.2638 48.0778 32.2717 49.1632 33.4479 50.0354C29.1448 55.1632 23.3275 57.3224 20.9606 58.0268C17.633 54.3209 15.341 49.6672 14.5466 44.5252C17.4666 45.7596 21.7759 47.0944 26.7594 47.0944ZM66.2933 36.4522C62.7038 34.9243 57.0169 33.2611 50.522 34.1603C49.7356 32.9214 48.7278 31.8366 47.5521 30.9648C51.8014 25.9012 57.5269 23.7322 59.9462 23.001C63.2355 26.6968 65.5026 31.3318 66.2933 36.4522Z" fill="#E21042"/>
<path d="M9.49219 66.7617H14.2383V71.5078H9.49219V66.7617Z" fill="#E21042"/>
<path d="M66.6035 66.7617H71.3496V71.5078H66.6035V66.7617Z" fill="#E21042"/>
<path d="M66.6035 9.49219H71.3496V14.2383H66.6035V9.49219Z" fill="#E21042"/>
<path d="M9.49219 9.49219H14.2383V14.2383H9.49219V9.49219Z" fill="#E21042"/>
</svg>
